<svg xmlns="http://www.w3.org/2000/svg" width="1600" height="560" aria-labelledby="title desc" viewBox="0 0 1600 560"><title>Airi Campfire Hero Banner</title><desc>Dark camp scene with a bonfire glow and founder-led product tagline.</desc><defs><linearGradient id="a" x1="0" x2="0" y1="0" y2="1"><stop offset="0%" stop-color="#111"/><stop offset="55%" stop-color="#17100d"/><stop offset="100%" stop-color="#0f0f10"/></linearGradient><linearGradient id="e" x1="0" x2="0" y1="1" y2="0"><stop offset="0%" stop-color="#c2410c"/><stop offset="70%" stop-color="#ff7a18"/><stop offset="100%" stop-color="#f5e6c8"/></linearGradient><linearGradient id="f" x1="0" x2="0" y1="1" y2="0"><stop offset="0%" stop-color="#ff7a18"/><stop offset="100%" stop-color="#f5e6c8"/></linearGradient><linearGradient id="c" x1="0" x2="1" y1="0" y2="0"><stop offset="0%" stop-color="#6b7280" stop-opacity=".1"/><stop offset="50%" stop-color="#6b7280" stop-opacity=".25"/><stop offset="100%" stop-color="#6b7280" stop-opacity=".1"/></linearGradient><filter id="g" width="140%" height="140%" x="-20%" y="-20%"><feTurbulence baseFrequency=".75" numOctaves="2" seed="13" type="fractalNoise"/><feColorMatrix values="0 0 0 0 0.96 0 0 0 0 0.90 0 0 0 0 0.78 0 0 0 0.08 0"/></filter><filter id="d" width="160%" height="160%" x="-30%" y="-30%"><feGaussianBlur stdDeviation="10"/></filter><radialGradient id="b" cx="50%" cy="72%" r="40%"><stop offset="0%" stop-color="#ff7a18" stop-opacity=".55"/><stop offset="45%" stop-color="#c2410c" stop-opacity=".28"/><stop offset="100%" stop-color="#111" stop-opacity="0"/></radialGradient></defs><path fill="url(#a)" d="M0 0h1600v560H0z"/><path fill="url(#b)" d="M0 0h1600v560H0z"/><path fill="#0d0d0e" d="M0 420c180-60 310-30 470-80 140-42 270-5 430-35s340 25 700-20v275H0Z"/><path fill="#141416" d="M0 440c160-40 330-20 505-65s315-15 475-35c150-20 310 20 620-10v230H0Z"/><path fill="url(#c)" d="M0 414h1600v2H0z"/><g fill="#f5e6c8" opacity=".6"><circle cx="218" cy="138" r="1.6"/><circle cx="302" cy="84" r="1.2"/><circle cx="446" cy="124" r="1.4"/><circle cx="578" cy="102" r="1.1"/><circle cx="758" cy="76" r="1.5"/><circle cx="876" cy="141" r="1.2"/><circle cx="1010" cy="98" r="1.3"/><circle cx="1126" cy="80" r="1.1"/><circle cx="1268" cy="132" r="1.3"/><circle cx="1382" cy="95" r="1.4"/></g><g fill="#f5e6c8" filter="url(#d)" opacity=".35"><ellipse cx="760" cy="320" rx="30" ry="12"/><ellipse cx="798" cy="282" rx="38" ry="16"/><ellipse cx="830" cy="242" rx="44" ry="18"/><ellipse cx="868" cy="196" rx="48" ry="20"/><ellipse cx="910" cy="152" rx="40" ry="16"/></g><g transform="translate(800 395)"><ellipse cy="32" opacity=".45" rx="166" ry="32"/><rect width="96" height="18" x="-124" y="14" fill="#3e2618" rx="8" transform="rotate(16)"/><rect width="98" height="18" x="24" y="12" fill="#3e2618" rx="8" transform="rotate(-17)"/><rect width="126" height="16" x="-64" y="20" fill="#4a2d1d" rx="8"/><ellipse cy="-3" fill="#ff7a18" opacity=".22" rx="74" ry="24"/><ellipse cy="-4" fill="#f5e6c8" opacity=".22" rx="48" ry="16"/><path fill="url(#e)" d="M0-108c-40 36-36 68-8 88-8-34 18-50 8-88"/><path fill="url(#e)" d="M0-108c34 32 30 67 8 91 6-33-18-50-8-91"/><path fill="url(#f)" d="M0-92c-14 30-10 52 0 70 10-18 14-40 0-70"/></g><g fill="#ff7a18" opacity=".75"><circle cx="760" cy="292" r="2.2"/><circle cx="842" cy="272" r="2.5"/><circle cx="820" cy="246" r="1.9"/><circle cx="778" cy="225" r="1.8"/><circle cx="876" cy="214" r="2.1"/><circle cx="916" cy="188" r="2.3"/></g><g filter="url(#g)"><path fill="#f5e6c8" d="M0 0h1600v560H0z" opacity=".08"/></g><g fill="#f5e6c8" font-family="Georgia, 'Times New Roman', serif" text-anchor="middle"><text x="800" y="140" font-size="66" letter-spacing="5">THE AIRI CAMPFIRE</text><text x="800" y="188" fill="#6b7280" font-size="25" letter-spacing="2">
      founder-led builds for calmer support operations
    </text></g></svg>