<svg xmlns="http://www.w3.org/2000/svg" width="1600" height="560" aria-labelledby="title desc" viewBox="0 0 1600 560">
  <title id="title">Samat Kalshabekov Profile Banner</title>
  <desc id="desc">Dark camp scene with a bonfire glow and profile context for AI support operations.</desc>
  <defs>
    <linearGradient id="sky" x1="0" x2="0" y1="0" y2="1">
      <stop offset="0%" stop-color="#0f1115"/>
      <stop offset="58%" stop-color="#17100d"/>
      <stop offset="100%" stop-color="#0b0b0d"/>
    </linearGradient>
    <linearGradient id="ember" x1="0" x2="0" y1="1" y2="0">
      <stop offset="0%" stop-color="#c2410c"/>
      <stop offset="62%" stop-color="#ff7a18"/>
      <stop offset="100%" stop-color="#f5e6c8"/>
    </linearGradient>
    <radialGradient id="glow" cx="50%" cy="75%" r="42%">
      <stop offset="0%" stop-color="#ff7a18" stop-opacity=".56"/>
      <stop offset="48%" stop-color="#c2410c" stop-opacity=".26"/>
      <stop offset="100%" stop-color="#111111" stop-opacity="0"/>
    </radialGradient>
    <filter id="grain" width="140%" height="140%" x="-20%" y="-20%">
      <feTurbulence baseFrequency=".72" numOctaves="2" seed="13" type="fractalNoise"/>
      <feColorMatrix values="0 0 0 0 0.96 0 0 0 0 0.90 0 0 0 0 0.78 0 0 0 0.08 0"/>
    </filter>
  </defs>

  <rect width="1600" height="560" fill="url(#sky)"/>
  <rect width="1600" height="560" fill="url(#glow)"/>
  <path fill="#0b0c0e" d="M0 420c180-58 315-30 470-78 142-44 272-7 430-36 160-30 344 24 700-20v274H0z"/>
  <path fill="#141416" d="M0 448c170-44 336-22 508-67 176-46 326-10 486-34 150-21 308 20 606-13v226H0z"/>

  <g fill="#f5e6c8" opacity=".62">
    <circle cx="220" cy="130" r="1.6"/>
    <circle cx="310" cy="82" r="1.2"/>
    <circle cx="452" cy="120" r="1.4"/>
    <circle cx="602" cy="96" r="1.1"/>
    <circle cx="756" cy="72" r="1.5"/>
    <circle cx="878" cy="134" r="1.2"/>
    <circle cx="1012" cy="96" r="1.3"/>
    <circle cx="1130" cy="78" r="1.1"/>
    <circle cx="1270" cy="130" r="1.3"/>
    <circle cx="1384" cy="94" r="1.4"/>
  </g>

  <g transform="translate(800 404)">
    <ellipse cy="34" fill="#050506" opacity=".5" rx="166" ry="34"/>
    <rect width="98" height="18" x="-124" y="14" fill="#3e2618" rx="8" transform="rotate(16)"/>
    <rect width="98" height="18" x="24" y="12" fill="#3e2618" rx="8" transform="rotate(-17)"/>
    <rect width="126" height="16" x="-63" y="21" fill="#4a2d1d" rx="8"/>
    <ellipse cy="-4" fill="#ff7a18" opacity=".22" rx="74" ry="24"/>
    <ellipse cy="-5" fill="#f5e6c8" opacity=".22" rx="48" ry="16"/>
    <path fill="url(#ember)" d="M0-110c-40 36-36 69-8 90-8-35 18-51 8-90"/>
    <path fill="url(#ember)" d="M0-110c34 32 31 68 8 93 6-34-18-51-8-93"/>
    <path fill="#f5e6c8" d="M0-92c-14 30-10 53 0 71 10-18 14-41 0-71"/>
  </g>

  <g fill="#ff7a18" opacity=".78">
    <circle cx="760" cy="294" r="2.2"/>
    <circle cx="842" cy="272" r="2.5"/>
    <circle cx="820" cy="246" r="1.9"/>
    <circle cx="778" cy="225" r="1.8"/>
    <circle cx="876" cy="214" r="2.1"/>
    <circle cx="916" cy="188" r="2.3"/>
  </g>

  <g filter="url(#grain)">
    <rect width="1600" height="560" fill="#f5e6c8" opacity=".08"/>
  </g>

  <g font-family="Georgia, 'Times New Roman', serif" text-anchor="middle">
    <text x="800" y="128" fill="#f5e6c8" font-size="66" font-weight="700" letter-spacing="4">SAMAT KALSHABEKOV</text>
    <text x="800" y="178" fill="#ff7a18" font-size="28" letter-spacing="2">CO-FOUNDER AND CTO AT AIRI.CHAT</text>
    <text x="800" y="220" fill="#d8c9ad" font-size="24" letter-spacing="1">AI support analytics, real-time coaching, and calmer multi-channel operations</text>
  </g>
</svg>
