<svg xmlns="http://www.w3.org/2000/svg" width="1200" height="320" aria-labelledby="title desc" viewBox="0 0 1200 320"><title>Airi Project Card</title><desc>Project card for airi.chat with summary and technology tags.</desc><defs><linearGradient id="a" x1="0" x2="1" y1="0" y2="1"><stop offset="0%" stop-color="#111"/><stop offset="100%" stop-color="#1b130f"/></linearGradient><linearGradient id="b" x1="0" x2="0" y1="0" y2="1"><stop offset="0%" stop-color="#ff7a18"/><stop offset="100%" stop-color="#c2410c"/></linearGradient><filter id="c" width="140%" height="140%" x="-20%" y="-20%"><feTurbulence baseFrequency=".8" numOctaves="2" seed="9" type="fractalNoise"/><feColorMatrix values="0 0 0 0 0.96 0 0 0 0 0.90 0 0 0 0 0.78 0 0 0 0.05 0"/></filter></defs><rect width="1200" height="320" fill="url(#a)" rx="26"/><rect width="8" height="284" x="20" y="18" fill="url(#b)" rx="4"/><rect width="1197" height="317" x="1.5" y="1.5" fill="none" stroke="#6b7280" stroke-opacity=".35" stroke-width="3" rx="24.5"/><g filter="url(#c)"><rect width="1200" height="320" fill="#f5e6c8" opacity=".07" rx="26"/></g><g fill="#f5e6c8" font-family="Segoe UI, Arial, sans-serif"><text x="56" y="84" font-size="56" font-weight="700">airi.chat</text><text x="56" y="126" font-size="24">
      AI support analytics and real-time coaching for multi-channel teams.
    </text><text x="56" y="166" fill="#6b7280" font-size="20">
      Flagship build: founder-led shipping with users in the loop.
    </text></g><g font-family="Segoe UI, Arial, sans-serif" font-size="17" font-weight="600"><rect width="122" height="34" x="56" y="200" fill="#231710" stroke="#ff7a18" stroke-opacity=".6" rx="17"/><text x="117" y="223" fill="#f5e6c8" text-anchor="middle">Next.js</text><rect width="130" height="34" x="192" y="200" fill="#231710" stroke="#ff7a18" stroke-opacity=".6" rx="17"/><text x="257" y="223" fill="#f5e6c8" text-anchor="middle">Supabase</text><rect width="108" height="34" x="336" y="200" fill="#231710" stroke="#ff7a18" stroke-opacity=".6" rx="17"/><text x="390" y="223" fill="#f5e6c8" text-anchor="middle">OpenAI</text><rect width="154" height="34" x="458" y="200" fill="#231710" stroke="#ff7a18" stroke-opacity=".6" rx="17"/><text x="535" y="223" fill="#f5e6c8" text-anchor="middle">WhatsApp API</text><rect width="118" height="34" x="626" y="200" fill="#231710" stroke="#ff7a18" stroke-opacity=".6" rx="17"/><text x="685" y="223" fill="#f5e6c8" text-anchor="middle">Telegram</text></g><g fill="#ff7a18" opacity=".75"><circle cx="1090" cy="64" r="4"/><circle cx="1122" cy="86" r="3"/><circle cx="1064" cy="100" r="2.5"/></g></svg>