<svg xmlns="http://www.w3.org/2000/svg" width="1200" height="320" aria-labelledby="title desc" viewBox="0 0 1200 320"><title>Voice Agent Project Card</title><desc>Project card for Voice Agent with summary and technology tags.</desc><defs><linearGradient id="a" x1="0" x2="1" y1="0" y2="1"><stop offset="0%" stop-color="#111"/><stop offset="100%" stop-color="#12161b"/></linearGradient><linearGradient id="b" x1="0" x2="0" y1="0" y2="1"><stop offset="0%" stop-color="#6b7280"/><stop offset="100%" stop-color="#ff7a18"/></linearGradient><filter id="c" width="140%" height="140%" x="-20%" y="-20%"><feTurbulence baseFrequency=".82" numOctaves="2" seed="34" type="fractalNoise"/><feColorMatrix values="0 0 0 0 0.96 0 0 0 0 0.90 0 0 0 0 0.78 0 0 0 0.05 0"/></filter></defs><rect width="1200" height="320" fill="url(#a)" rx="26"/><rect width="8" height="284" x="20" y="18" fill="url(#b)" rx="4"/><rect width="1197" height="317" x="1.5" y="1.5" fill="none" stroke="#6b7280" stroke-opacity=".35" stroke-width="3" rx="24.5"/><g filter="url(#c)"><rect width="1200" height="320" fill="#f5e6c8" opacity=".07" rx="26"/></g><g fill="#f5e6c8" font-family="Segoe UI, Arial, sans-serif"><text x="56" y="84" font-size="52" font-weight="700">Voice Agent</text><text x="56" y="126" font-size="24">
      Voice-first coding assistant with guarded execution and realtime speech.
    </text><text x="56" y="166" fill="#6b7280" font-size="20">
      Experimental assistant for hands-free developer and operator loops.
    </text></g><g font-family="Segoe UI, Arial, sans-serif" font-size="17" font-weight="600"><rect width="126" height="34" x="56" y="200" fill="#171c22" stroke="#6b7280" stroke-opacity=".8" rx="17"/><text x="119" y="223" fill="#f5e6c8" text-anchor="middle">Electron</text><rect width="106" height="34" x="196" y="200" fill="#171c22" stroke="#6b7280" stroke-opacity=".8" rx="17"/><text x="249" y="223" fill="#f5e6c8" text-anchor="middle">React</text><rect width="170" height="34" x="316" y="200" fill="#171c22" stroke="#6b7280" stroke-opacity=".8" rx="17"/><text x="401" y="223" fill="#f5e6c8" text-anchor="middle">OpenAI Realtime</text><rect width="126" height="34" x="500" y="200" fill="#171c22" stroke="#6b7280" stroke-opacity=".8" rx="17"/><text x="563" y="223" fill="#f5e6c8" text-anchor="middle">ElevenLabs</text><rect width="148" height="34" x="640" y="200" fill="#171c22" stroke="#6b7280" stroke-opacity=".8" rx="17"/><text x="714" y="223" fill="#f5e6c8" text-anchor="middle">ACP/OpenClaw</text></g><g fill="#ff7a18" opacity=".7"><circle cx="1078" cy="66" r="4"/><circle cx="1116" cy="90" r="3.1"/><circle cx="1050" cy="106" r="2.4"/></g></svg>
