<svg xmlns="http://www.w3.org/2000/svg" width="1200" height="320" aria-labelledby="title desc" viewBox="0 0 1200 320"><title>SlopCollector Project Card</title><desc>Project card for SlopCollector with summary and technology tags.</desc><defs><linearGradient id="a" x1="0" x2="1" y1="0" y2="1"><stop offset="0%" stop-color="#111"/><stop offset="100%" stop-color="#171717"/></linearGradient><linearGradient id="b" x1="0" x2="0" y1="0" y2="1"><stop offset="0%" stop-color="#c2410c"/><stop offset="100%" stop-color="#ff7a18"/></linearGradient><filter id="c" width="140%" height="140%" x="-20%" y="-20%"><feTurbulence baseFrequency=".85" numOctaves="2" seed="21" type="fractalNoise"/><feColorMatrix values="0 0 0 0 0.96 0 0 0 0 0.90 0 0 0 0 0.78 0 0 0 0.05 0"/></filter></defs><rect width="1200" height="320" fill="url(#a)" rx="26"/><rect width="8" height="284" x="20" y="18" fill="url(#b)" rx="4"/><rect width="1197" height="317" x="1.5" y="1.5" fill="none" stroke="#6b7280" stroke-opacity=".35" stroke-width="3" rx="24.5"/><g filter="url(#c)"><rect width="1200" height="320" fill="#f5e6c8" opacity=".07" rx="26"/></g><g fill="#f5e6c8" font-family="Segoe UI, Arial, sans-serif"><text x="56" y="84" font-size="52" font-weight="700">SlopCollector</text><text x="56" y="126" font-size="24">
      Supabase schema diagnostics with AI-powered indexing and performance hints.
    </text><text x="56" y="166" fill="#6b7280" font-size="20">
      A raccoon with SQL opinions, but polite in production.
    </text></g><g font-family="Segoe UI, Arial, sans-serif" font-size="17" font-weight="600"><rect width="122" height="34" x="56" y="200" fill="#201312" stroke="#c2410c" stroke-opacity=".7" rx="17"/><text x="117" y="223" fill="#f5e6c8" text-anchor="middle">Next.js</text><rect width="130" height="34" x="192" y="200" fill="#201312" stroke="#c2410c" stroke-opacity=".7" rx="17"/><text x="257" y="223" fill="#f5e6c8" text-anchor="middle">Supabase</text><rect width="108" height="34" x="336" y="200" fill="#201312" stroke="#c2410c" stroke-opacity=".7" rx="17"/><text x="390" y="223" fill="#f5e6c8" text-anchor="middle">OpenAI</text><rect width="84" height="34" x="458" y="200" fill="#201312" stroke="#c2410c" stroke-opacity=".7" rx="17"/><text x="500" y="223" fill="#f5e6c8" text-anchor="middle">ERD</text><rect width="122" height="34" x="556" y="200" fill="#201312" stroke="#c2410c" stroke-opacity=".7" rx="17"/><text x="617" y="223" fill="#f5e6c8" text-anchor="middle">PostHog</text></g><g fill="#ff7a18" opacity=".7"><circle cx="1072" cy="66" r="4"/><circle cx="1112" cy="90" r="3.2"/><circle cx="1054" cy="108" r="2.4"/></g></svg>